<?xml version="1.0" encoding="UTF-8"?>
<!DOCTYPE svg PUBLIC "-//W3C//DTD SVG 1.1//EN" "http://www.w3.org/Graphics/SVG/1.1/DTD/svg11.dtd">
<svg xmlns="http://www.w3.org/2000/svg" version="1.1" width="208px" height="208px" style="shape-rendering:geometricPrecision; text-rendering:geometricPrecision; image-rendering:optimizeQuality; fill-rule:evenodd; clip-rule:evenodd" xmlns:xlink="http://www.w3.org/1999/xlink">
<g><path style="opacity:1" fill="#fefffe" d="M 71.5,28.5 C 74.8499,28.335 78.1832,28.5017 81.5,29C 82.9661,30.5522 83.9661,32.3855 84.5,34.5C 71.4115,36.9185 59.0781,41.4185 47.5,48C 44.6117,51.172 45.2784,53.3386 49.5,54.5C 84.7723,36.0763 120.106,35.9097 155.5,54C 161.007,54.5144 162.341,52.5144 159.5,48C 147.922,41.4185 135.589,36.9185 122.5,34.5C 123.176,29.8216 125.843,27.8216 130.5,28.5C 147.19,29.5593 162.023,35.226 175,45.5C 191.475,76.067 199.475,108.734 199,143.5C 191.534,154.5 181.367,162 168.5,166C 160.397,168.962 152.063,170.295 143.5,170C 139.713,166.261 136.88,162.094 135,157.5C 145.633,154.734 155.467,150.234 164.5,144C 168.933,139.296 167.933,136.963 161.5,137C 144.108,149.017 124.774,154.517 103.5,153.5C 81.5776,154.3 61.5776,148.633 43.5,136.5C 38.6312,138.294 38.2979,140.794 42.5,144C 51.989,150.096 61.989,154.929 72.5,158.5C 69.6908,162.477 66.6908,166.31 63.5,170C 43.094,169.866 25.594,162.7 11,148.5C 8.03514,144.355 6.86847,139.688 7.5,134.5C 9.05939,104.262 16.5594,75.595 30,48.5C 33.9207,43.5862 38.754,39.7528 44.5,37C 53.374,33.3721 62.374,30.5388 71.5,28.5 Z M 73.5,91.5 C 87.5702,93.0814 92.7368,100.748 89,114.5C 84.4365,123.68 77.6032,125.847 68.5,121C 59.2866,109.173 60.9533,99.3398 73.5,91.5 Z M 127.5,91.5 C 141.535,93.0533 146.702,100.72 143,114.5C 138.436,123.68 131.603,125.847 122.5,121C 113.283,109.216 114.949,99.3827 127.5,91.5 Z"/></g>
</svg>
