<?xml version="1.0" encoding="UTF-8"?>
<!DOCTYPE svg PUBLIC "-//W3C//DTD SVG 1.1//EN" "http://www.w3.org/Graphics/SVG/1.1/DTD/svg11.dtd">
<svg xmlns="http://www.w3.org/2000/svg" version="1.1" width="208px" height="208px" style="shape-rendering:geometricPrecision; text-rendering:geometricPrecision; image-rendering:optimizeQuality; fill-rule:evenodd; clip-rule:evenodd" xmlns:xlink="http://www.w3.org/1999/xlink">
<g><path style="opacity:1" fill="#fefffe" d="M 91.5,7.5 C 139.017,4.82642 172.851,24.8264 193,67.5C 207.022,109.073 198.522,145.239 167.5,176C 137.38,200.02 104.047,205.687 67.5,193C 24.6754,172.875 4.84206,139.042 8,91.5C 16.6794,44.3209 44.5127,16.3209 91.5,7.5 Z M 137.5,66.5 C 142.393,65.3138 145.727,66.9805 147.5,71.5C 144.553,91.8485 141.387,112.182 138,132.5C 137.298,137.683 135.964,142.683 134,147.5C 130.458,151.216 126.625,151.382 122.5,148C 112.5,141.333 102.5,134.667 92.5,128C 90.1145,125.293 89.9478,122.46 92,119.5C 102.304,110.197 112.304,100.53 122,90.5C 122.49,89.2068 122.657,87.8734 122.5,86.5C 120.345,86.372 118.345,86.872 116.5,88C 102.844,97.8295 88.844,107.163 74.5,116C 65.1612,116.45 56.1612,114.783 47.5,111C 45.7888,109.867 45.2888,108.367 46,106.5C 48.2513,104.623 50.7513,103.123 53.5,102C 81.6414,90.239 109.641,78.4057 137.5,66.5 Z"/></g>
</svg>
